HIERARCHY
ROOT Hips
{
  OFFSET 5.72205e-005 65.662 3.42586
  CHANNELS 6 Xposition Yposition Zposition Zrotation Xrotation Yrotation
  JOINT Chest
  {
    OFFSET 0 8.7983 -4.7612
    CHANNELS 3 Zrotation Xrotation Yrotation
    JOINT Chest2
    {
      OFFSET 0 8.0291 0.4195
      CHANNELS 3 Zrotation Xrotation Yrotation
      JOINT Chest3
      {
        OFFSET 0 9.9351 -2.2114
        CHANNELS 3 Zrotation Xrotation Yrotation
        JOINT Neck
        {
          OFFSET 0 22.3885 -0.4656
          CHANNELS 3 Zrotation Xrotation Yrotation
          JOINT Head
          {
            OFFSET -0.0001 12.643 3.4389
            CHANNELS 3 Zrotation Xrotation Yrotation
            End Site
            {
              OFFSET 0.0001 17.6655 0.5274
            }
          }
        }
        JOINT LeftCollar
        {
          OFFSET 2.2603 21.606 7.4023
          CHANNELS 3 Zrotation Xrotation Yrotation
          JOINT LeftShoulder
          {
            OFFSET 13.5163 -1.1332 -5.0146
            CHANNELS 3 Zrotation Xrotation Yrotation
            JOINT LeftElbow
            {
              OFFSET -0.0995 -28.05 -0.2431
              CHANNELS 3 Zrotation Xrotation Yrotation
              JOINT LeftWrist
              {
                OFFSET 0.0679 -23.3996 -0.1402
                CHANNELS 3 Zrotation Xrotation Yrotation
                JOINT LeftFinger1
                {
                  OFFSET 0.7932 -9.069 2.5189
                  CHANNELS 3 Zrotation Xrotation Yrotation
                  JOINT LeftFinger11
                  {
                    OFFSET -0.8272 -3.3923 0.5977
                    CHANNELS 3 Zrotation Xrotation Yrotation
                    JOINT LeftFinger12
                    {
                      OFFSET -0.5649 -2.3158 0.4082
                      CHANNELS 3 Zrotation Xrotation Yrotation
                      End Site
                      {
                        OFFSET -0.4919 -1.6479 0.2673
                      }
                    }
                  }
                }
                JOINT LeftFinger2
                {
                  OFFSET 0.9159 -9.2044 0.2193
                  CHANNELS 3 Zrotation Xrotation Yrotation
                  JOINT LeftFinger21
                  {
                    OFFSET 0.0117 -4.1944 -0.0248
                    CHANNELS 3 Zrotation Xrotation Yrotation
                    JOINT LeftFinger22
                    {
                      OFFSET 0.0071 -2.3249 -0.0142
                      CHANNELS 3 Zrotation Xrotation Yrotation
                      End Site
                      {
                        OFFSET -0.1475 -2.0882 0.0028
                      }
                    }
                  }
                }
                JOINT LeftFinger3
                {
                  OFFSET 0.6113 -8.7231 -2.0637
                  CHANNELS 3 Zrotation Xrotation Yrotation
                  JOINT LeftFinger31
                  {
                    OFFSET -0.1927 -3.8059 -0.2383
                    CHANNELS 3 Zrotation Xrotation Yrotation
                    JOINT LeftFinger32
                    {
                      OFFSET -0.1091 -2.1688 -0.1362
                      CHANNELS 3 Zrotation Xrotation Yrotation
                      End Site
                      {
                        OFFSET -0.2358 -1.9176 -0.0906
                      }
                    }
                  }
                }
                JOINT LeftFinger4
                {
                  OFFSET -0.6151 -8.0947 -3.5641
                  CHANNELS 3 Zrotation Xrotation Yrotation
                  JOINT LeftFinger41
                  {
                    OFFSET -0.4882 -2.341 -0.6462
                    CHANNELS 3 Zrotation Xrotation Yrotation
                    JOINT LeftFinger42
                    {
                      OFFSET -0.3575 -1.7167 -0.4742
                      CHANNELS 3 Zrotation Xrotation Yrotation
                      End Site
                      {
                        OFFSET -0.4187 -1.5237 -0.3496
                      }
                    }
                  }
                }
                JOINT LeftFinger0
                {
                  OFFSET -1.42 -1.8761 1.4223
                  CHANNELS 3 Zrotation Xrotation Yrotation
                  JOINT LeftFinger01
                  {
                    OFFSET -1.1471 -3.4929 2.6334
                    CHANNELS 3 Zrotation Xrotation Yrotation
                    JOINT LeftFinger02
                    {
                      OFFSET -0.823 -2.3 1.6571
                      CHANNELS 3 Zrotation Xrotation Yrotation
                      End Site
                      {
                        OFFSET -0.5822 -1.6914 1.1582
                      }
                    }
                  }
                }
              }
            }
          }
        }
        JOINT RightCollar
        {
          OFFSET -2.2603 21.606 7.4023
          CHANNELS 3 Zrotation Xrotation Yrotation
          JOINT RightShoulder
          {
            OFFSET -13.5187 -1.1334 -5.0155
            CHANNELS 3 Zrotation Xrotation Yrotation
            JOINT RightElbow
            {
              OFFSET 0.0994 -28.0499 -0.2431
              CHANNELS 3 Zrotation Xrotation Yrotation
              JOINT RightWrist
              {
                OFFSET -0.0679 -23.3996 -0.1402
                CHANNELS 3 Zrotation Xrotation Yrotation
                JOINT RightFinger1
                {
                  OFFSET -0.7932 -9.0691 2.5189
                  CHANNELS 3 Zrotation Xrotation Yrotation
                  JOINT RightFinger11
                  {
                    OFFSET 0.8272 -3.3923 0.5977
                    CHANNELS 3 Zrotation Xrotation Yrotation
                    JOINT RightFinger12
                    {
                      OFFSET 0.565 -2.3158 0.4082
                      CHANNELS 3 Zrotation Xrotation Yrotation
                      End Site
                      {
                        OFFSET 0.4919 -1.6479 0.2673
                      }
                    }
                  }
                }
                JOINT RightFinger2
                {
                  OFFSET -0.916 -9.2044 0.2193
                  CHANNELS 3 Zrotation Xrotation Yrotation
                  JOINT RightFinger21
                  {
                    OFFSET -0.0117 -4.1944 -0.0248
                    CHANNELS 3 Zrotation Xrotation Yrotation
                    JOINT RightFinger22
                    {
                      OFFSET -0.0071 -2.3249 -0.0142
                      CHANNELS 3 Zrotation Xrotation Yrotation
                      End Site
                      {
                        OFFSET 0.1475 -2.0882 0.0028
                      }
                    }
                  }
                }
                JOINT RightFinger3
                {
                  OFFSET -0.6113 -8.7231 -2.0637
                  CHANNELS 3 Zrotation Xrotation Yrotation
                  JOINT RightFinger31
                  {
                    OFFSET 0.1927 -3.8059 -0.2383
                    CHANNELS 3 Zrotation Xrotation Yrotation
                    JOINT RightFinger32
                    {
                      OFFSET 0.1091 -2.1688 -0.1362
                      CHANNELS 3 Zrotation Xrotation Yrotation
                      End Site
                      {
                        OFFSET 0.2358 -1.9176 -0.0906
                      }
                    }
                  }
                }
                JOINT RightFinger4
                {
                  OFFSET 0.6151 -8.0947 -3.564
                  CHANNELS 3 Zrotation Xrotation Yrotation
                  JOINT RightFinger41
                  {
                    OFFSET 0.4882 -2.341 -0.6462
                    CHANNELS 3 Zrotation Xrotation Yrotation
                    JOINT RightFinger42
                    {
                      OFFSET 0.3574 -1.7166 -0.4742
                      CHANNELS 3 Zrotation Xrotation Yrotation
                      End Site
                      {
                        OFFSET 0.4187 -1.5237 -0.3496
                      }
                    }
                  }
                }
                JOINT RightFinger0
                {
                  OFFSET 1.4199 -1.8761 1.4221
                  CHANNELS 3 Zrotation Xrotation Yrotation
                  JOINT RightFinger01
                  {
                    OFFSET 1.1472 -3.4929 2.6336
                    CHANNELS 3 Zrotation Xrotation Yrotation
                    JOINT RightFinger02
                    {
                      OFFSET 0.8229 -2.3 1.6571
                      CHANNELS 3 Zrotation Xrotation Yrotation
                      End Site
                      {
                        OFFSET 0.5822 -1.6914 1.1582
                      }
                    }
                  }
                }
              }
            }
          }
        }
      }
    }
  }
  JOINT RightHip
  {
    OFFSET -9.412 3.9771 -0.7758
    CHANNELS 3 Zrotation Xrotation Yrotation
    JOINT RightKnee
    {
      OFFSET -0.7531 -40.938 0
      CHANNELS 3 Zrotation Xrotation Yrotation
      JOINT RightAnkle
      {
        OFFSET 0 -40.1986 0
        CHANNELS 3 Zrotation Xrotation Yrotation
        JOINT RightToe
        {
          OFFSET 0 -4.4182 9.239
          CHANNELS 3 Zrotation Xrotation Yrotation
          End Site
          {
            OFFSET 0 0 6.1981
          }
        }
      }
    }
  }
  JOINT LeftHip
  {
    OFFSET 9.4119 3.9773 -0.7758
    CHANNELS 3 Zrotation Xrotation Yrotation
    JOINT LeftKnee
    {
      OFFSET 0.7532 -40.9383 0
      CHANNELS 3 Zrotation Xrotation Yrotation
      JOINT LeftAnkle
      {
        OFFSET 0 -40.1986 0
        CHANNELS 3 Zrotation Xrotation Yrotation
        JOINT LeftToe
        {
          OFFSET 0 -4.4182 9.239
          CHANNELS 3 Zrotation Xrotation Yrotation
          End Site
          {
            OFFSET 0 0 6.1981
          }
        }
      }
    }
  }
}
MOTION
Frames:	7
Frame Time:	0.0333333
5.72205e-005 65.662 3.42586 0 0 -0 0 0 -0 0 0 -0 0 0 -0 0 0 -0 0 0 -0 0 0 -12.5014 88.1196 14.2451 10.6914 -0.00160068 -0.00239207 0.000740045 -8.4365e-005 7.00714e-005 -9.52055e-007 9.93923e-017 -1.98785e-016 -1.59028e-015 9.93923e-017 -5.96354e-016 -1.59028e-015 -9.93923e-017 -5.96354e-016 -1.59028e-015 9.93923e-017 -1.98785e-016 -1.59028e-015 -0.0128176 0.00232552 8.52707e-005 9.93923e-017 5.96354e-016 -0 9.93923e-017 -1.98785e-016 -1.59028e-015 -0.0160551 0.00299681 0.000857156 -2.48481e-016 0 3.18055e-015 9.93923e-017 -1.98785e-016 -1.59028e-015 -0.0125865 0.0031206 0.00282719 0 1.98785e-016 -0 9.93923e-017 -1.98785e-016 -1.59028e-015 9.93923e-017 -5.96354e-016 -1.59028e-015 -9.93923e-017 -5.96354e-016 -1.59028e-015 -0.865644 0.16582 7.03859 -88.0329 10.2057 -10.5567 0.0015593 -0.00248883 -0.000788628 7.87605e-005 4.10553e-005 1.24965e-005 -3.97569e-016 -7.95139e-016 3.18055e-015 -1.98785e-016 -3.97569e-016 3.18055e-015 -1.98785e-016 0 3.18055e-015 -3.97569e-016 -7.95139e-016 3.18055e-015 0.0129473 0.00231697 -8.70038e-005 9.93923e-017 -7.95139e-016 1.59028e-015 -3.97569e-016 -7.95139e-016 3.18055e-015 0.0163314 0.00303369 -0.000872333 3.97569e-016 7.95139e-016 -3.18055e-015 -3.97569e-016 -7.95139e-016 3.18055e-015 0.0145763 0.00367772 -0.00326275 9.93923e-017 -3.97569e-016 -0 -3.97569e-016 -7.95139e-016 3.18055e-015 -1.98785e-016 -3.97569e-016 3.18055e-015 -1.98785e-016 0 3.18055e-015 3.42482 1.32465 -0.0626183 0.000117508 0.717283 0.000978199 -3.4257 -2.04197 -0.0604716 6.47761e-025 0 -0 -3.42483 1.34017 0.0627307 -0.000193936 0.682302 -0.0013703 3.42574 -2.02253 0.0595886 -8.45714e-024 0 -7.40531e-025 
39.8401 13.565 21.4832 7.52726e-008 60.9989 -3.18456e-008 -0.331007 17.6731 -0.0769204 -0.689037 35.3463 -0.043574 -0.689031 35.3461 -0.0435754 -16.1189 -30.1502 38.0215 12.071 -14.4191 21.4219 -8.64059 -9.57022 -17.3851 75.1336 -64.2339 76.8037 -54.7605 -9.5928 -90.6992 -70.3885 -20.1262 9.82281 5.05847e-006 -2.13095e-006 3.57098e-007 1.59028e-015 0 -0 3.15866e-006 5.07313e-007 3.71293e-007 5.05847e-006 -2.13095e-006 3.57098e-007 -0.0128397 0.00233063 8.0906e-005 7.91693e-006 8.54568e-008 4.52878e-006 5.05847e-006 -2.13095e-006 3.57098e-007 -0.0160963 0.00300214 0.000852553 4.30709e-006 -2.13131e-006 1.80307e-006 5.05847e-006 -2.13095e-006 3.57098e-007 -0.0125926 0.00311929 0.00282448 1.25238e-005 -4.54394e-007 2.53194e-006 5.05847e-006 -2.13095e-006 3.57098e-007 1.59028e-015 0 -0 3.15866e-006 5.07313e-007 3.71293e-007 7.77341 -9.45455 12.0418 -68.8647 -68.1214 -71.1472 54.5979 -11.4792 91.5033 70.9669 -19.2119 -8.7108 7.06053e-006 3.71975e-006 8.8406e-006 1.83857e-006 -7.24144e-007 2.44475e-008 0 0 -0 7.06053e-006 3.71975e-006 8.8406e-006 0.0129638 0.00231929 -8.68436e-005 4.77083e-015 3.18055e-015 -0 7.06053e-006 3.71975e-006 8.8406e-006 0.0163439 0.00303535 -0.000878031 -1.59028e-015 0 6.36111e-015 7.06053e-006 3.71975e-006 8.8406e-006 0.014636 0.0036876 -0.00327718 -3.18055e-015 -9.54166e-015 -0 7.06053e-006 3.71975e-006 8.8406e-006 1.83857e-006 -7.24144e-007 2.44475e-008 0 0 -0 175.467 -83.6326 175.247 -177.649 22.009 169.438 12.7045 -28.0845 20.9077 -4.66456e-007 6.61998e-008 8.29028e-007 -175.518 -83.4265 -175.304 177.665 21.7885 -169.466 -12.7111 -28.0873 -20.9133 -9.80234e-008 -1.05847e-005 2.22869e-006 
39.8401 13.6097 21.5222 1.91688e-007 61.4985 -1.96647e-007 -0.330565 17.5065 -0.0781425 -0.686783 35.0133 -0.0477198 -0.686778 35.013 -0.0477213 -15.5293 -30.1121 38.3356 12.4443 -14.9369 21.6573 -8.63311 -9.55247 -17.3834 75.1336 -64.2339 76.8037 -54.3421 -9.59318 -90.6216 -70.5727 -20.4328 9.38096 -1.59028e-015 6.36111e-015 -1.59028e-015 -5.05734e-006 8.29672e-007 -3.58299e-007 1.59028e-015 3.18055e-015 -0 -1.59028e-015 6.36111e-015 -1.59028e-015 -0.0128237 0.00232547 8.43382e-005 7.46747e-006 -2.71274e-006 2.16834e-006 -1.59028e-015 6.36111e-015 -1.59028e-015 -0.0160593 0.00300116 0.000858132 -1.59028e-015 0 1.27222e-014 -1.59028e-015 6.36111e-015 -1.59028e-015 -0.0125726 0.0031208 0.00282036 5.87085e-006 -1.61118e-006 -1.62911e-006 -1.59028e-015 6.36111e-015 -1.59028e-015 -5.05734e-006 8.29672e-007 -3.58299e-007 1.59028e-015 3.18055e-015 -0 7.67263 -9.12319 12.429 -69.1232 -67.982 -71.408 53.5064 -11.4464 91.2872 71.0969 -19.5582 -7.95234 0 1.59028e-014 -0 -3.18055e-015 9.54166e-015 -0 6.36111e-015 6.36111e-015 -0 0 1.59028e-014 -0 0.0129424 0.00230741 -8.5765e-005 3.18055e-015 0 3.18055e-015 0 1.59028e-014 -0 0.0163465 0.00303528 -0.00087162 -6.36111e-015 -6.36111e-015 -0 0 1.59028e-014 -0 0.0145741 0.00367262 -0.00325511 -0 -3.18055e-015 -0 0 1.59028e-014 -0 -3.18055e-015 9.54166e-015 -0 6.36111e-015 6.36111e-015 -0 175.993 -83.1807 175.689 -177.652 21.8394 169.444 12.7036 -28.0798 20.9038 -7.95139e-016 0 1.46604e-015 -175.896 -83.1663 -175.596 177.666 21.8106 -169.46 -12.7102 -28.0827 -20.9094 -1.59028e-015 -4.88989e-009 -1.2424e-015 
39.8401 13.655 21.5616 1.88372e-007 61.9983 -1.75694e-007 -0.330126 17.3399 -0.0793637 -0.684567 34.6801 -0.0518384 -0.684561 34.6798 -0.0518399 -14.9399 -30.0711 38.6492 12.8208 -15.4534 21.8968 -8.62563 -9.53469 -17.3817 75.1335 -64.2339 76.8036 -53.9237 -9.59307 -90.5441 -70.7599 -20.7383 8.93706 -1.59028e-015 6.36111e-015 3.18055e-015 -3.18055e-015 3.18055e-015 1.59028e-015 -1.76556e-031 -6.36111e-015 -1.59028e-015 -1.59028e-015 6.36111e-015 3.18055e-015 -0.0128195 0.00232307 9.00777e-005 -7.95139e-015 -6.36111e-015 -4.77083e-015 -1.59028e-015 6.36111e-015 3.18055e-015 -0.0160448 0.00299206 0.000857947 1.59028e-015 0 -4.77083e-015 -1.59028e-015 6.36111e-015 3.18055e-015 -0.0125813 0.00311954 0.00282368 1.59028e-015 0 4.77083e-015 -1.59028e-015 6.36111e-015 3.18055e-015 -3.18055e-015 3.18055e-015 1.59028e-015 -1.76556e-031 -6.36111e-015 -1.59028e-015 7.56964 -8.79241 12.8166 -69.3784 -67.8424 -71.6657 52.4135 -11.4094 91.0714 71.2321 -19.9033 -7.19081 -1.23302e-005 -2.0344e-006 -3.34755e-006 -4.77083e-015 1.27222e-014 -6.36111e-015 -3.18055e-015 0 -0 -1.23302e-005 -2.0344e-006 -3.34755e-006 0.0129264 0.0023211 -8.02686e-005 -6.36111e-015 3.18055e-015 -3.18055e-015 -1.23302e-005 -2.0344e-006 -3.34755e-006 0.0163354 0.00303619 -0.000864646 -6.36111e-015 1.59028e-014 -6.36111e-015 -1.23302e-005 -2.0344e-006 -3.34755e-006 0.0145691 0.00367274 -0.00324741 -3.29766e-006 4.15372e-007 -3.41847e-006 -1.23302e-005 -2.0344e-006 -3.34755e-006 -4.77083e-015 1.27222e-014 -6.36111e-015 -3.18055e-015 0 -0 176.353 -82.8992 175.965 -177.653 21.8409 169.44 12.7027 -28.0752 20.8998 -2.04712e-006 -1.04093e-005 -2.32408e-006 -176.155 -83.0486 -175.769 177.663 21.9756 -169.445 -12.7093 -28.078 -20.9054 3.42901e-007 -7.54769e-006 1.71681e-007 
39.8401 13.7008 21.6012 2.76502e-007 62.4981 -2.71344e-007 -0.32969 17.1733 -0.0805838 -0.682388 34.3469 -0.0559294 -0.682382 34.3466 -0.0559312 -14.351 -30.0273 38.9623 13.2007 -15.9687 22.1406 -8.61816 -9.5169 -17.38 75.1336 -64.2341 76.8037 -53.505 -9.59226 -90.4663 -70.9501 -21.0424 8.49101 -4.55903e-007 4.45929e-007 -2.35012e-006 -2.96804e-007 -2.49461e-006 3.80276e-006 1.47921e-005 -3.42672e-006 5.4587e-006 -4.55903e-007 4.45929e-007 -2.35012e-006 -0.0128063 0.00232415 9.52239e-005 -1.59028e-015 1.27874e-006 4.77083e-015 -4.55903e-007 4.45929e-007 -2.35012e-006 -0.0160365 0.00299953 0.000864435 7.4719e-006 -2.63465e-006 2.15618e-006 -4.55903e-007 4.45929e-007 -2.35012e-006 -0.0125431 0.00310957 0.00282081 8.22463e-006 -2.83794e-006 7.03653e-007 -4.55903e-007 4.45929e-007 -2.35012e-006 -2.96804e-007 -2.49461e-006 3.80276e-006 1.47921e-005 -3.42672e-006 5.4587e-006 7.46445 -8.46221 13.2047 -69.6305 -67.7024 -71.9202 51.3195 -11.3682 90.8561 71.3726 -20.2468 -6.42621 -6.46807e-006 -3.24748e-006 -4.05782e-006 3.18055e-015 0 -0 3.18055e-015 0 -0 -6.46807e-006 -3.24748e-006 -4.05782e-006 0.0129329 0.00231575 -9.03693e-005 -3.16864e-006 4.81659e-007 -6.41088e-007 -6.46807e-006 -3.24748e-006 -4.05782e-006 0.016362 0.00303755 -0.000871092 -9.59587e-006 -1.80134e-006 -7.86446e-006 -6.46807e-006 -3.24748e-006 -4.05782e-006 0.014579 0.00367939 -0.00326844 -1.84028e-006 -1.56518e-006 -2.10966e-008 -6.46807e-006 -3.24748e-006 -4.05782e-006 3.18055e-015 0 -0 3.18055e-015 0 -0 176.612 -82.7547 176.137 -177.651 21.9796 169.426 12.7018 -28.0706 20.8959 2.38542e-015 -1.68239e-009 -5.96354e-016 -176.551 -82.6941 -176.081 177.665 21.9038 -169.445 -12.7084 -28.0735 -20.9015 0 0 -2.48481e-016 
39.8401 13.7472 21.6413 7.59468e-007 62.9981 -5.24303e-007 -0.329257 17.0066 -0.0818032 -0.680245 34.0135 -0.059995 -0.680241 34.0133 -0.0599962 -13.7624 -29.9808 39.2747 13.584 -16.4825 22.3887 -8.61068 -9.49913 -17.3782 75.1336 -64.2339 76.8037 -53.0865 -9.59102 -90.3887 -71.1432 -21.3452 8.04288 6.36111e-015 -9.54166e-015 -4.77083e-015 -3.97569e-015 -3.18055e-015 -0 -3.18055e-015 -9.54166e-015 -4.77083e-015 6.36111e-015 -9.54166e-015 -4.77083e-015 -0.0127799 0.00231883 8.48324e-005 3.18055e-015 6.36111e-015 -1.59028e-015 6.36111e-015 -9.54166e-015 -4.77083e-015 -0.0160336 0.00298843 0.000851616 -8.74653e-015 -3.18055e-015 -3.18055e-015 6.36111e-015 -9.54166e-015 -4.77083e-015 -0.0126036 0.00312548 0.00281938 -1.8808e-006 -5.22797e-007 -2.93671e-008 6.36111e-015 -9.54166e-015 -4.77083e-015 -3.97569e-015 -3.18055e-015 -0 -3.18055e-015 -9.54166e-015 -4.77083e-015 7.35706 -8.13266 13.593 -69.8794 -67.5619 -72.1716 50.2247 -11.3231 90.6416 71.5183 -20.5888 -5.65857 1.55019e-005 -7.42084e-007 3.97834e-006 1.83979e-006 1.56019e-006 2.02833e-008 -1.40561e-006 1.34386e-006 5.14173e-006 1.55019e-005 -7.42084e-007 3.97834e-006 0.012956 0.00231841 -8.83415e-005 -2.69471e-006 5.1963e-007 1.35724e-006 1.55019e-005 -7.42084e-007 3.97834e-006 0.0163356 0.00303688 -0.000878216 9.90192e-006 7.78987e-006 1.02472e-005 1.55019e-005 -7.42084e-007 3.97834e-006 0.014584 0.0036801 -0.00327175 7.89018e-006 7.29316e-006 1.06156e-005 1.55019e-005 -7.42084e-007 3.97834e-006 1.83979e-006 1.56019e-006 2.02833e-008 -1.40561e-006 1.34386e-006 5.14173e-006 176.966 -82.411 176.407 -177.653 21.919 169.426 12.7009 -28.0661 20.892 1.64368e-006 -1.35113e-007 9.32756e-007 -176.918 -82.3306 -176.365 177.667 21.8231 -169.445 -12.7075 -28.069 -20.8976 -5.46968e-008 -7.73675e-008 8.44217e-007 
39.8402 13.7941 21.6817 -6.66751e-008 63.4982 -3.15428e-010 -0.328829 16.84 -0.0830215 -0.67814 33.6802 -0.0640331 -0.678136 33.68 -0.0640337 -13.1743 -29.9314 39.5866 13.9709 -16.9949 22.6411 -8.60321 -9.48134 -17.3765 75.1336 -64.2341 76.8037 -52.6677 -9.58915 -90.311 -71.3393 -21.6466 7.59263 0 3.18055e-015 -0 -7.95139e-016 0 1.59028e-015 1.87521e-006 2.4997e-006 4.04102e-008 0 3.18055e-015 -0 -0.0127977 0.00232283 8.62825e-005 -2.79289e-006 -2.91156e-006 -4.7348e-006 0 3.18055e-015 -0 -0.0160311 0.00299643 0.000856846 8.59912e-006 -7.19891e-007 3.6414e-006 0 3.18055e-015 -0 -0.0126039 0.0031279 0.00283682 -8.30412e-006 2.97312e-006 -7.44554e-006 0 3.18055e-015 -0 -7.95139e-016 0 1.59028e-015 1.87521e-006 2.4997e-006 4.04102e-008 7.24748 -7.80373 13.9818 -70.1253 -67.4208 -72.4199 49.1296 -11.2739 90.4279 71.6693 -20.9291 -4.88793 -1.05934e-030 9.54166e-015 6.36111e-015 -1.33198e-005 -2.1242e-006 -4.73218e-006 -1.59028e-015 6.36111e-015 3.18055e-015 -1.05934e-030 9.54166e-015 6.36111e-015 0.0129777 0.00232036 -8.63645e-005 -1.59028e-015 9.54166e-015 -6.36111e-015 -1.05934e-030 9.54166e-015 6.36111e-015 0.0163395 0.00303204 -0.0008808 6.33721e-006 2.24228e-006 1.27898e-006 -1.05934e-030 9.54166e-015 6.36111e-015 0.0145663 0.00367489 -0.00325763 4.77083e-015 -9.54166e-015 -0 -1.05934e-030 9.54166e-015 6.36111e-015 -1.33198e-005 -2.1242e-006 -4.73218e-006 -1.59028e-015 6.36111e-015 3.18055e-015 177.295 -82.0651 176.652 -177.654 21.8563 169.425 12.7001 -28.0616 20.8882 1.56723e-006 9.67475e-006 3.95284e-007 -177.189 -82.1137 -176.55 177.666 21.8892 -169.436 -12.7067 -28.0646 -20.8938 1.10348e-032 -7.95139e-016 7.95139e-016 
